<?xml version="1.0" encoding="UTF-8"?>
<svg width="516px" height="372px" viewBox="0 0 516 372" version="1.1" xmlns="http://www.w3.org/2000/svg" xmlns:xlink="http://www.w3.org/1999/xlink">
    <title>编组 9</title>
    <g id="页面-1" stroke="none" stroke-width="1" fill="none" fill-rule="evenodd">
        <g id="系统运维总览23.3.6" transform="translate(-825.000000, -449.000000)">
            <g id="编组-51" transform="translate(825.000000, 76.000000)">
                <g id="编组-9" transform="translate(0.000000, 373.000000)">
                    <g id="编组-8">
                        <path d="M495.792893,0.5 L515.5,20.2071068 L515.5,351.792893 L495.792893,371.5 L20.2071068,371.5 L0.5,351.792893 L0.5,20.2071068 L20.2071068,0.5 L495.792893,0.5 Z" id="形状结合" stroke-opacity="0.300835029" stroke="#81C3FF" fill-opacity="0.300986123" fill="#051021"></path>
                        <path d="M488.289719,5.5 L507.5,24.7192337 L507.5,347.280766 L488.289719,366.5 L27.71,366.5 L8.5,347.280766 L8.5,24.7192337 L27.7102806,5.5 L488.289719,5.5 Z" id="形状结合" stroke-opacity="0.300835029" stroke="#81C3FF" fill-opacity="0.300986123" fill="#132A4F"></path>
                        <path d="M8.57252759e-16,358 L14,372 L0,372 L8.57252759e-16,358 Z M516,358 L516,372 L502,372 L516,358 Z M14,0 L1.70530257e-12,14 L1.70530257e-12,0 L14,0 Z M516,0 L516,14 L502,0 L516,0 Z" id="形状结合" fill="#61DBFF"></path>
                    </g>
                    <line x1="38" y1="1" x2="199" y2="1" id="直线" stroke="#71FAAC" stroke-linecap="square"></line>
                </g>
            </g>
        </g>
    </g>
</svg>