<?xml version="1.0" encoding="UTF-8"?>
<svg width="344px" height="344px" viewBox="0 0 344 344" version="1.1" xmlns="http://www.w3.org/2000/svg" xmlns:xlink="http://www.w3.org/1999/xlink">
    <title>编组 72</title>
    <defs>
        <filter x="-54.9%" y="-54.9%" width="209.8%" height="209.8%" filterUnits="objectBoundingBox" id="filter-1">
            <feGaussianBlur stdDeviation="30" in="SourceGraphic"></feGaussianBlur>
        </filter>
        <linearGradient x1="50%" y1="26.4259645%" x2="50%" y2="100%" id="linearGradient-2">
            <stop stop-color="#1065B2" stop-opacity="0" offset="0%"></stop>
            <stop stop-color="#1065B2" offset="100%"></stop>
        </linearGradient>
        <linearGradient x1="50%" y1="26.4259645%" x2="50%" y2="100%" id="linearGradient-3">
            <stop stop-color="#1065B2" stop-opacity="0" offset="0%"></stop>
            <stop stop-color="#1065B2" offset="100%"></stop>
        </linearGradient>
        <linearGradient x1="100%" y1="52.1885421%" x2="0%" y2="47.8114579%" id="linearGradient-4">
            <stop stop-color="#FFFFFF" stop-opacity="0" offset="0%"></stop>
            <stop stop-color="#FFFFFF" offset="52.014134%"></stop>
            <stop stop-color="#FFFFFF" stop-opacity="0" offset="100%"></stop>
        </linearGradient>
        <filter x="-8.1%" y="-38.5%" width="116.1%" height="177.0%" filterUnits="objectBoundingBox" id="filter-5">
            <feGaussianBlur stdDeviation="-0.732283491 1.86111818" in="SourceGraphic"></feGaussianBlur>
        </filter>
        <linearGradient x1="50%" y1="0%" x2="50%" y2="100%" id="linearGradient-6">
            <stop stop-color="#1065B2" stop-opacity="0" offset="0%"></stop>
            <stop stop-color="#1065B2" stop-opacity="0.197878537" offset="100%"></stop>
        </linearGradient>
        <linearGradient x1="50%" y1="0%" x2="50%" y2="100%" id="linearGradient-7">
            <stop stop-color="#1065B2" stop-opacity="0" offset="0%"></stop>
            <stop stop-color="#1065B2" offset="100%"></stop>
        </linearGradient>
        <linearGradient x1="52.2567678%" y1="42.0312207%" x2="50%" y2="59.7032739%" id="linearGradient-8">
            <stop stop-color="#0E3F6B" stop-opacity="0" offset="0%"></stop>
            <stop stop-color="#0E3F6B" offset="99.9639862%"></stop>
            <stop stop-color="#30A9FF" offset="100%"></stop>
        </linearGradient>
        <filter x="-1.3%" y="-3.0%" width="102.6%" height="106.0%" filterUnits="objectBoundingBox" id="filter-9">
            <feGaussianBlur stdDeviation="1" in="SourceGraphic"></feGaussianBlur>
        </filter>
        <linearGradient x1="50%" y1="21.9732456%" x2="50%" y2="92.7446035%" id="linearGradient-10">
            <stop stop-color="#30A9FF" stop-opacity="0.0975913735" offset="0%"></stop>
            <stop stop-color="#30A9FF" offset="100%"></stop>
        </linearGradient>
    </defs>
    <g id="页面-1" stroke="none" stroke-width="1" fill="none" fill-rule="evenodd">
        <g id="系统运维总览23.3.6" transform="translate(-286.000000, -339.000000)">
            <g id="编组-8" transform="translate(0.000000, 77.000000)">
                <g id="编组-4" transform="translate(318.000000, 243.000000)">
                    <g id="编组-46" transform="translate(0.000000, 39.000000)">
                        <g id="编组-72" transform="translate(0.000000, 39.000000)">
                            <circle id="椭圆形" fill-opacity="0.145289281" fill="#4BAAFF" filter="url(#filter-1)" cx="140" cy="113" r="82"></circle>
                            <g id="编组-45" fill-rule="nonzero">
                                <g id="编组-44" transform="translate(0.000000, 5.000000)" stroke-width="3">
                                    <path d="M139.623607,7 C62.5116179,7 0,36.9969218 0,74 C0,111.003078 62.5116179,141 139.623607,141 C216.735595,141 279.247213,111.003078 279.247213,74 C279.247213,36.9969218 216.735595,7 139.623607,7 Z" id="路径备份-2" stroke="url(#linearGradient-2)"></path>
                                    <path d="M139.623607,0 C69.4171692,0 12.5036066,27.3106303 12.5036066,61 C12.5036066,94.6893697 69.4171692,122 139.623607,122 C209.830044,122 266.743607,94.6893697 266.743607,61 C266.743607,27.3106303 209.830044,0 139.623607,0 Z" id="路径" stroke="url(#linearGradient-3)"></path>
                                    <path d="M139.481228,102.513234 C162.693718,114.500376 195.83352,122 232.623607,122" id="路径" stroke="url(#linearGradient-4)" stroke-linecap="round" filter="url(#filter-5)" transform="translate(186.052417, 112.256617) scale(-1, 1) translate(-186.052417, -112.256617) "></path>
                                </g>
                                <path d="M139.623607,13 C104.257041,13 75.5867741,23.9690236 75.5867741,37.5 C75.5867741,51.0309764 104.257041,62 139.623607,62 C174.990173,62 203.660439,51.0309764 203.660439,37.5 C203.660439,23.9690236 174.990173,13 139.623607,13 Z" id="路径" stroke="url(#linearGradient-7)" fill="url(#linearGradient-6)"></path>
                                <path d="M154.354417,85.0739172 L158.654931,105.300179 C152.466945,105.760393 146.108794,106 139.623607,106 C133.482073,106 127.454469,105.785114 121.577424,105.371479 L125.878446,85.1390558 C130.35917,85.424565 134.949546,85.5726872 139.623607,85.5726872 C144.641014,85.5726872 149.561991,85.4020043 154.354417,85.0739172 Z M96.3997274,80.9794958 C104.424605,82.8126927 113.202866,84.1512626 122.493897,84.895733 L118.196274,105.110275 C105.620444,104.051816 93.7811373,102.079169 83.0483489,99.3553288 Z M183.703921,80.781306 L197.04171,99.1392938 C186.365342,101.902954 174.572341,103.919429 162.032904,105.025639 L157.736983,84.8145348 C166.99454,84.0279111 175.730471,82.6503109 183.703921,80.781306 Z M72.8005082,73.1872519 C78.6180388,75.8845159 85.376821,78.2272979 92.8636649,80.1274635 L79.5635942,98.433927 C68.073312,95.2711461 57.9602658,91.2278306 49.7112542,86.5184292 Z M206.999038,72.9287645 L230.03675,86.2303789 C221.89542,90.948411 211.89466,95.0098382 200.515631,98.2026966 L187.226606,79.9108253 C194.614727,77.9887681 201.275358,75.6325501 206.999038,72.9287645 Z M55.6685679,61.4226452 C58.917959,65.049615 63.503256,68.4085872 69.1774623,71.3974515 L46.4165107,84.5392006 C37.0596018,78.6198539 30.533909,71.7670926 27.7037088,64.3616554 Z M223.664275,61.3266547 L251.581903,64.260547 C248.820217,71.5786038 242.450787,78.3593707 233.305962,84.2361747 L210.589721,71.1208855 C216.073918,68.1753587 220.50914,64.878767 223.664275,61.3266547 Z M34.1379222,37.5088782 L51.1221123,43.0272525 C50.4644738,44.8361768 50.1236066,46.6879755 50.1236066,48.5726872 C50.1236066,51.937864 51.2103102,55.1981123 53.2465564,58.2967288 L26.7037243,61.086682 C26.3201008,59.4140892 26.1236066,57.7171533 26.1236066,56 C26.1236066,49.4680537 28.9668683,43.2286534 34.1379222,37.5088782 Z M245.334537,37.7600107 C250.362851,43.4111056 253.123607,49.5635244 253.123607,56 C253.123607,57.6818647 252.935106,59.3443343 252.566903,60.9835325 L226.064794,58.1985921 C228.059714,55.1293013 229.123607,51.9023571 229.123607,48.5726872 C229.123607,46.7892467 228.818387,45.0352771 228.228364,43.3192189 Z M217.477883,19.6169444 C227.986554,23.9824916 236.60425,29.2218201 242.732486,35.0712805 L226.841681,40.2344589 C223.89757,34.9499567 218.215613,30.0980569 210.446385,25.9477117 Z M62.4555919,19.3341961 L69.4312862,25.6148481 C61.4754406,29.766441 55.6289641,34.6403617 52.5611756,39.9599084 L36.7705389,34.82882 C43.0161803,28.9505267 51.7820927,23.6956838 62.4555919,19.3341961 Z M181.546628,9.52144943 C193.494726,11.6147023 204.445029,14.5761642 213.996143,18.22901 L207.226158,24.3243148 C199.396859,20.5970812 189.793857,17.523702 178.960309,15.3287217 Z M98.6295142,9.36079967 L101.205415,15.1453102 C90.2984942,17.2915003 80.6078158,20.3231409 72.6772033,24.0154109 L65.9549544,17.9620129 C75.587621,14.3381188 86.6134943,11.4118613 98.6295142,9.36079967 Z M141.624739,6.0076151 C154.417961,6.10505036 166.695294,7.13493662 178.121542,8.94960952 L175.570448,14.677999 C165.144067,12.7854732 153.67792,11.6910481 141.624411,11.5817503 Z M138.622607,6.003 L138.622949,11.5749521 C126.560179,11.6295822 115.070106,12.6707656 104.602569,14.5125344 L102.061387,8.8030528 C113.81816,6.98732453 126.45915,6 139.623607,6 L138.622607,6.003 Z" id="形状结合" fill="url(#linearGradient-8)" filter="url(#filter-9)"></path>
                                <path d="M154.354417,79.0739172 L158.654931,99.300179 C152.466945,99.7603932 146.108794,100 139.623607,100 C133.482073,100 127.454469,99.7851142 121.577424,99.3714788 L125.878446,79.1390558 C130.35917,79.424565 134.949546,79.5726872 139.623607,79.5726872 C144.641014,79.5726872 149.561991,79.4020043 154.354417,79.0739172 Z M96.3997274,74.9794958 C104.424605,76.8126927 113.202866,78.1512626 122.493897,78.895733 L118.196274,99.1102751 C105.620444,98.0518155 93.7811373,96.0791689 83.0483489,93.3553288 Z M183.703921,74.781306 L197.04171,93.1392938 C186.365342,95.9029538 174.572341,97.9194295 162.032904,99.0256392 L157.736983,78.8145348 C166.99454,78.0279111 175.730471,76.6503109 183.703921,74.781306 Z M72.8005082,67.1872519 C78.6180388,69.8845159 85.376821,72.2272979 92.8636649,74.1274635 L79.5635942,92.433927 C68.073312,89.2711461 57.9602658,85.2278306 49.7112542,80.5184292 Z M206.999038,66.9287645 L230.03675,80.2303789 C221.89542,84.948411 211.89466,89.0098382 200.515631,92.2026966 L187.226606,73.9108253 C194.614727,71.9887681 201.275358,69.6325501 206.999038,66.9287645 Z M55.6685679,55.4226452 C58.917959,59.049615 63.503256,62.4085872 69.1774623,65.3974515 L46.4165107,78.5392006 C37.0596018,72.6198539 30.533909,65.7670926 27.7037088,58.3616554 Z M223.664275,55.3266547 L251.581903,58.260547 C248.820217,65.5786038 242.450787,72.3593707 233.305962,78.2361747 L210.589721,65.1208855 C216.073918,62.1753587 220.50914,58.878767 223.664275,55.3266547 Z M34.1379222,31.5088782 L51.1221123,37.0272525 C50.4644738,38.8361768 50.1236066,40.6879755 50.1236066,42.5726872 C50.1236066,45.937864 51.2103102,49.1981123 53.2465564,52.2967288 L26.7037243,55.086682 C26.3201008,53.4140892 26.1236066,51.7171533 26.1236066,50 C26.1236066,43.4680537 28.9668683,37.2286534 34.1379222,31.5088782 Z M245.334537,31.7600107 C250.362851,37.4111056 253.123607,43.5635244 253.123607,50 C253.123607,51.6818647 252.935106,53.3443343 252.566903,54.9835325 L226.064794,52.1985921 C228.059714,49.1293013 229.123607,45.9023571 229.123607,42.5726872 C229.123607,40.7892467 228.818387,39.0352771 228.228364,37.3192189 Z M217.477883,13.6169444 C227.986554,17.9824916 236.60425,23.2218201 242.732486,29.0712805 L226.841681,34.2344589 C223.89757,28.9499567 218.215613,24.0980569 210.446385,19.9477117 Z M62.4555919,13.3341961 L69.4312862,19.6148481 C61.4754406,23.766441 55.6289641,28.6403617 52.5611756,33.9599084 L36.7705389,28.82882 C43.0161803,22.9505267 51.7820927,17.6956838 62.4555919,13.3341961 Z M181.546628,3.52144943 C193.494726,5.61470228 204.445029,8.57616423 213.996143,12.22901 L207.226158,18.3243148 C199.396859,14.5970812 189.793857,11.523702 178.960309,9.32872166 Z M98.6295142,3.36079967 L101.205415,9.14531015 C90.2984942,11.2915003 80.6078158,14.3231409 72.6772033,18.0154109 L65.9549544,11.9620129 C75.587621,8.33811882 86.6134943,5.41186127 98.6295142,3.36079967 Z M141.624739,0.00761509844 C154.417961,0.10505036 166.695294,1.13493662 178.121542,2.94960952 L175.570448,8.67799897 C165.144067,6.78547317 153.67792,5.69104815 141.624411,5.58175032 Z M138.622607,0.003 L138.622949,5.57495214 C126.560179,5.62958221 115.070106,6.67076562 104.602569,8.51253439 L102.061387,2.8030528 C113.81816,0.987324527 126.45915,0 139.623607,0 L138.622607,0.003 Z" id="形状结合" fill="url(#linearGradient-10)"></path>
                            </g>
                        </g>
                    </g>
                </g>
            </g>
        </g>
    </g>
</svg>