<?xml version="1.0" encoding="UTF-8"?>
<svg width="283px" height="84px" viewBox="0 0 283 84" version="1.1" xmlns="http://www.w3.org/2000/svg" xmlns:xlink="http://www.w3.org/1999/xlink">
    <title>编组 14</title>
    <defs>
        <linearGradient x1="50%" y1="109.599751%" x2="50%" y2="3.55271368e-13%" id="linearGradient-1">
            <stop stop-color="#FFFFFF" stop-opacity="0.495540592" offset="0%"></stop>
            <stop stop-color="#2798FF" stop-opacity="0.3527943" offset="24.7674689%"></stop>
            <stop stop-color="#0B254F" stop-opacity="0.352036269" offset="100%"></stop>
        </linearGradient>
        <linearGradient x1="50%" y1="100%" x2="50%" y2="3.55271368e-13%" id="linearGradient-2">
            <stop stop-color="#FFFFFF" offset="0%"></stop>
            <stop stop-color="#51A1FF" offset="38.5648459%"></stop>
            <stop stop-color="#0D58AF" offset="100%"></stop>
        </linearGradient>
        <linearGradient x1="39.8052519%" y1="0%" x2="52.6683794%" y2="100%" id="linearGradient-3">
            <stop stop-color="#FFFFFF" offset="0%"></stop>
            <stop stop-color="#279CF3" stop-opacity="0.801071487" offset="28.4326513%"></stop>
            <stop stop-color="#1188E3" stop-opacity="0.301916589" offset="100%"></stop>
        </linearGradient>
        <radialGradient cx="14.2315378%" cy="50%" fx="14.2315378%" fy="50%" r="201.603774%" gradientTransform="translate(0.142315,0.500000),scale(0.414833,1.000000),translate(-0.142315,-0.500000)" id="radialGradient-4">
            <stop stop-color="#4574B6" stop-opacity="0.601175802" offset="0%"></stop>
            <stop stop-color="#4574B6" stop-opacity="0" offset="100%"></stop>
        </radialGradient>
    </defs>
    <g id="页面-1" stroke="none" stroke-width="1" fill="none" fill-rule="evenodd">
        <g id="系统运维总览23.3.6" transform="translate(-845.000000, -156.000000)">
            <g id="编组-51" transform="translate(825.000000, 76.000000)">
                <g id="编组-19" transform="translate(0.000000, 45.000000)">
                    <g id="编组-15" transform="translate(17.000000, 11.890625)">
                        <g id="编组-85" transform="translate(0.000000, 6.000000)">
                            <g id="编组-9" stroke-width="1.28054852">
                                <path d="M11.5746082,44.8307588 L11.5746082,33.6259809 L20.5105145,28.1429068 M103.744531,76.3669318 L103.744531,86.8475901 L94.808625,91.7711029" id="形状" stroke="#00BBFF" transform="translate(57.659570, 59.957005) rotate(-210.000000) translate(-57.659570, -59.957005) "></path>
                                <polygon id="多边形" stroke="url(#linearGradient-2)" fill="url(#linearGradient-1)" transform="translate(57.500000, 60.000000) rotate(-210.000000) translate(-57.500000, -60.000000) " points="57.6110347 13.8515926 97.4101758 36.8296374 97.2991411 82.9780448 57.3889653 106.148407 17.5898242 83.1703626 17.7008589 37.0219552"></polygon>
                            </g>
                            <g id="24gf-box2" transform="translate(41.109827, 33.263437)" fill="url(#linearGradient-3)" fill-rule="nonzero" opacity="0.601897467">
                                <path d="M28.4825261,0 C30.2280698,0 31.6472512,1.41275863 31.6472512,3.16141791 L31.6472512,3.16141791 L31.6472512,49.0019775 C31.6472512,49.8763072 30.940133,50.5826865 30.0648887,50.5826865 L30.0648887,50.5826865 L1.58236256,50.5826865 C0.70711827,50.5826865 0,49.8763072 0,49.0019775 L0,49.0019775 L0,3.16141791 C0,1.41275863 1.41918142,0 3.16472512,0 L3.16472512,0 Z M15.8780193,37.1466604 L15.7741768,37.1466604 C15.1362869,37.1466604 14.5676253,37.4084653 14.1473103,37.8234014 C13.7269952,38.2383375 13.4698613,38.8113445 13.4698613,39.4485678 C13.4698613,40.7180747 14.5033419,41.7504752 15.7741768,41.7504752 L15.7741768,41.7504752 L15.8780193,41.7504752 C16.5109644,41.7504752 17.0895157,41.4886703 17.5048858,41.0737342 C17.920256,40.6587981 18.1773899,40.0857911 18.1823348,39.4485678 C18.1823348,38.1790609 17.1488543,37.1466604 15.8780193,37.1466604 L15.8780193,37.1466604 Z M15.8582398,31.6141791 L15.7890114,31.6141791 C15.3538617,31.6141791 14.9582711,31.7920088 14.6714679,32.0785123 C14.3846647,32.3650158 14.2066489,32.760193 14.2066489,33.194888 C14.2066489,34.0692176 14.9137671,34.775597 15.7890114,34.775597 L15.7890114,34.775597 L15.8582398,34.775597 C16.2933895,34.775597 16.6889801,34.5977672 16.9757834,34.3112637 C17.2625866,34.0247602 17.4406024,33.629583 17.4406024,33.194888 C17.4406024,32.3205584 16.7334841,31.6141791 15.8582398,31.6141791 L15.8582398,31.6141791 Z M24.5068402,18.9685074 L7.11074176,18.9685074 C6.67559206,18.9685074 6.31956048,19.3241669 6.31956048,19.7588619 L6.31956048,19.7588619 L6.31956048,27.6624067 C6.31956048,28.0971016 6.67559206,28.4527611 7.11074176,28.4527611 L7.11074176,28.4527611 L24.5068402,28.4527611 C24.9419899,28.4527611 25.2980215,28.0971016 25.2980215,27.6624067 L25.2980215,27.6624067 L25.2980215,19.7588619 C25.2980215,19.3241669 24.9419899,18.9685074 24.5068402,18.9685074 L24.5068402,18.9685074 Z M21.935501,22.1299253 C22.0442884,22.1299253 22.1332963,22.2188402 22.1332963,22.327514 L22.1332963,25.0937546 C22.1332963,25.2024284 22.0442884,25.2913432 21.935501,25.2913432 L9.68208092,25.2913432 C9.5732935,25.2913432 9.4842856,25.2024284 9.4842856,25.0937546 L9.4842856,22.327514 C9.4842856,22.2188402 9.5732935,22.1299253 9.68208092,22.1299253 L21.935501,22.1299253 Z M24.5068402,12.6456716 L7.11074176,12.6456716 C6.67559206,12.6456716 6.31956048,13.0013311 6.31956048,13.4360261 L6.31956048,13.4360261 L6.31956048,15.016735 C6.31956048,15.45143 6.67559206,15.8070895 7.11074176,15.8070895 L7.11074176,15.8070895 L24.5068402,15.8070895 C24.9419899,15.8070895 25.2980215,15.45143 25.2980215,15.016735 L25.2980215,15.016735 L25.2980215,13.4360261 C25.2980215,13.0013311 24.9419899,12.6456716 24.5068402,12.6456716 L24.5068402,12.6456716 Z M24.5266197,6.32283581 L7.13052129,6.32283581 C6.69537159,6.32283581 6.33934001,6.67849532 6.33934001,7.11319029 L6.33934001,7.11319029 L6.33934001,8.69389924 C6.33934001,9.1285942 6.69537159,9.48425372 7.13052129,9.48425372 L7.13052129,9.48425372 L24.5266197,9.48425372 C24.9617694,9.48425372 25.317801,9.1285942 25.317801,8.69389924 L25.317801,8.69389924 L25.317801,7.11319029 C25.317801,6.67849532 24.9617694,6.32283581 24.5266197,6.32283581 L24.5266197,6.32283581 Z" id="形状结合"></path>
                            </g>
                        </g>
                        <path d="M291,24 L291,106 L93.329,105.999527 L117,65 L93.329,23.9995266 L291,24 Z" id="形状结合" fill="url(#radialGradient-4)"></path>
                    </g>
                </g>
            </g>
        </g>
    </g>
</svg>