<?xml version="1.0" encoding="UTF-8"?>
<svg width="283px" height="83px" viewBox="0 0 283 83" version="1.1" xmlns="http://www.w3.org/2000/svg" xmlns:xlink="http://www.w3.org/1999/xlink">
    <title>编组 14</title>
    <defs>
        <linearGradient x1="50%" y1="109.599751%" x2="50%" y2="3.55271368e-13%" id="linearGradient-1">
            <stop stop-color="#FFFFFF" stop-opacity="0.495540592" offset="0%"></stop>
            <stop stop-color="#2798FF" stop-opacity="0.3527943" offset="24.7674689%"></stop>
            <stop stop-color="#0B254F" stop-opacity="0.352036269" offset="100%"></stop>
        </linearGradient>
        <linearGradient x1="50%" y1="100%" x2="50%" y2="3.55271368e-13%" id="linearGradient-2">
            <stop stop-color="#FFFFFF" offset="0%"></stop>
            <stop stop-color="#51A1FF" offset="38.5648459%"></stop>
            <stop stop-color="#0D58AF" offset="100%"></stop>
        </linearGradient>
        <linearGradient x1="23.9559637%" y1="0%" x2="56.8167815%" y2="100%" id="linearGradient-3">
            <stop stop-color="#FFFFFF" offset="0%"></stop>
            <stop stop-color="#279CF3" stop-opacity="0.801071487" offset="28.4326513%"></stop>
            <stop stop-color="#1188E3" stop-opacity="0.301916589" offset="100%"></stop>
        </linearGradient>
        <radialGradient cx="14.2315378%" cy="50%" fx="14.2315378%" fy="50%" r="201.603774%" gradientTransform="translate(0.142315,0.500000),scale(0.414833,1.000000),translate(-0.142315,-0.500000)" id="radialGradient-4">
            <stop stop-color="#4574B6" stop-opacity="0.601175802" offset="0%"></stop>
            <stop stop-color="#4574B6" stop-opacity="0" offset="100%"></stop>
        </radialGradient>
    </defs>
    <g id="页面-1" stroke="none" stroke-width="1" fill="none" fill-rule="evenodd">
        <g id="系统运维总览23.3.6" transform="translate(-1393.000000, -157.000000)">
            <g id="编组-51" transform="translate(825.000000, 76.000000)">
                <g id="编组-19备份" transform="translate(548.000000, 45.000000)">
                    <g id="编组-15" transform="translate(16.862570, 11.890625)">
                        <g id="编组-85" transform="translate(0.000000, 6.079219)">
                            <g id="编组-9" stroke-width="1.28054852">
                                <path d="M11.712038,44.7515398 L11.712038,33.546762 L20.6479443,28.0636878 M103.881961,76.2877128 L103.881961,86.7683711 L94.9460548,91.6918839" id="形状" stroke="#00BBFF" transform="translate(57.797000, 59.877786) rotate(-210.000000) translate(-57.797000, -59.877786) "></path>
                                <polygon id="多边形" stroke="url(#linearGradient-2)" fill="url(#linearGradient-1)" transform="translate(57.637430, 59.920781) rotate(-210.000000) translate(-57.637430, -59.920781) " points="57.7484645 13.7723736 97.5476056 36.7504185 97.4365709 82.8988258 57.5263951 106.069188 17.727254 83.0911436 17.8382887 36.9427362"></polygon>
                            </g>
                            <path d="M79.242693,38.8722613 L43.8742719,38.8722613 C40.6321666,38.8722613 37.9795351,41.5248929 37.9795351,44.7669981 L37.9795351,68.3459455 C37.9795351,71.5880507 40.6321666,74.2406823 43.8742719,74.2406824 L55.6637456,74.2406824 L54.1900613,81.6091034 L49.0321666,81.6091034 C47.8532193,81.6091034 46.8216403,82.6406823 46.8216403,83.8196297 C46.8216403,84.9985771 47.8532193,86.030156 49.0321666,86.030156 L74.0847982,86.030156 C75.2637456,86.030156 76.2953245,84.9985771 76.2953245,83.8196297 C76.2953245,82.6406823 75.2637456,81.6091034 74.0847982,81.6091034 L68.9269035,81.6091034 L67.4532192,74.2406824 L79.242693,74.2406824 C82.4847982,74.2406824 85.1374298,71.5880508 85.1374298,68.3459455 L85.1374298,44.7669981 C85.1374298,41.5248929 82.4847982,38.8722613 79.242693,38.8722613 L79.242693,38.8722613 Z M67.4532192,65.3985771 L54.3374298,65.3985771 C50.9479561,65.3985771 48.2953245,62.7459455 48.2953245,59.3564718 C48.2953245,55.9669981 50.9479561,53.3143665 54.3374298,53.3143665 C54.3374298,49.3354192 57.5795351,46.0933139 61.5584824,46.0933139 C64.8005877,46.0933139 67.4532192,48.1564718 68.3374298,50.9564718 C71.8742719,51.3985771 74.6742719,54.4933139 74.6742719,58.1775244 C74.6742719,62.1564718 71.4321667,65.3985771 67.4532192,65.3985771 L67.4532192,65.3985771 Z M29.1374298,55.0827876 L33.5584824,55.0827876 L33.5584824,50.6617349 L29.1374298,50.6617349 L29.1374298,55.0827876 Z M29.1374298,62.4512087 C29.1374298,62.4512087 29.1374298,62.5985771 29.1374298,62.4512087 C29.1374298,65.3985771 33.5584824,65.2512086 33.5584824,62.4512087 L33.5584824,59.5038402 L29.1374298,59.5038402 L29.1374298,62.4512087 Z M29.1374298,46.2406823 L33.5584824,46.2406823 L33.5584824,41.8196297 L29.1374298,41.8196297 L29.1374298,46.2406823 Z M72.0216403,30.030156 C72.0216403,30.030156 71.874272,30.030156 72.0216403,30.030156 L68.9269035,30.030156 L68.9269035,34.4512087 L71.8742719,34.4512087 C74.6742719,34.4512087 74.8216403,30.030156 72.0216403,30.030156 L72.0216403,30.030156 Z M51.242693,34.4512087 L55.6637456,34.4512087 L55.6637456,30.030156 L51.242693,30.030156 L51.242693,34.4512087 L51.242693,34.4512087 Z M60.0847982,34.4512087 L64.5058509,34.4512087 L64.5058509,30.030156 L60.0847982,30.030156 L60.0847982,34.4512087 L60.0847982,34.4512087 Z M29.1374298,35.9248929 L29.1374298,37.398577 L33.5584824,37.398577 L33.5584824,35.9248929 C33.5584824,35.0406823 34.1479561,34.4512087 35.0321666,34.4512087 L37.9795351,34.4512087 L37.9795351,30.030156 L35.0321666,30.030156 C31.7900614,30.030156 29.1374298,32.6827876 29.1374298,35.9248929 Z M42.4005877,34.4512087 L46.8216403,34.4512087 L46.8216403,30.030156 L42.4005877,30.030156 L42.4005877,34.4512087 L42.4005877,34.4512087 Z" id="形状" fill="url(#linearGradient-3)" fill-rule="nonzero" opacity="0.601897467"></path>
                        </g>
                        <path d="M291.13743,24 L291.13743,106 L93.4664298,105.999527 L117.13743,65 L93.4664298,23.9995266 L291.13743,24 Z" id="形状结合" fill="url(#radialGradient-4)"></path>
                    </g>
                </g>
            </g>
        </g>
    </g>
</svg>